<svg width="90" height="90" viewBox="0 0 90 90" fill="none" xmlns="http://www.w3.org/2000/svg">
<g clip-path="url(#clip0_55_426)">
<path d="M12.1718 55.736C17.4614 56.5448 22.6321 56.732 27.6308 54.382C27.5055 54.1858 27.3577 54.0042 27.1902 53.8408C21.7396 49.6269 18.2119 44.0977 15.9546 37.7754C14.5064 33.7462 13.2686 29.6409 11.9603 25.5678C11.8967 25.3782 11.8657 25.1749 11.8064 24.908L19.076 22.6006C20.9575 27.4962 23.4133 31.948 28.0472 35.0571C28.2675 34.0354 28.4446 33.1251 28.6495 32.1905C29.7746 27.1038 32.1541 22.366 35.5809 18.3891C38.7945 14.5707 42.3323 11.0081 45.7455 7.30933C45.8694 7.17144 45.9681 7.01147 46.0993 6.8378L51.9135 11.935C48.5179 15.9862 45.7908 20.2811 45.3902 25.7176C47.0024 25.2431 48.4623 24.7499 49.9748 24.3579C55.2258 22.9936 60.5416 23.1371 65.8481 24.1175C70.1651 24.9244 74.4488 25.9517 78.7475 26.8972C78.9705 26.9396 79.1899 26.9984 79.4039 27.073L77.7818 34.4321C72.4976 33.5253 67.3321 33.4366 62.2338 35.7707L64.1987 37.4299C68.3863 41.0637 71.5706 45.6701 73.4566 50.8223C75.2081 55.3903 76.5649 60.1174 78.0975 64.7249C78.1379 64.8865 78.1677 65.0505 78.1867 65.2157L70.9583 67.5409C69.0508 62.6387 66.5906 58.1712 61.9359 55.0557C61.8247 55.6337 61.7419 56.0788 61.6633 56.5449C60.562 62.5088 57.8172 68.062 53.7244 72.6064C50.6538 76.1328 47.344 79.491 44.1687 82.9031C44.0613 82.9984 43.9451 83.0837 43.8215 83.1579L38.1376 78.1919C41.5001 74.1647 44.2627 69.8976 44.6359 64.3821L42.0996 65.2191C37.7753 66.5781 33.2086 67.0492 28.685 66.6031C22.5924 66.0704 16.6764 64.6377 10.651 63.08L12.1718 55.736ZM44.3713 55.1924C46.4294 55.3202 48.4786 54.8485 50.2597 53.8367C52.0408 52.8249 53.4737 51.3186 54.3772 49.5082C55.2807 47.6979 55.6143 45.6649 55.3356 43.6663C55.057 41.6677 54.1787 39.7933 52.8119 38.2803C51.4451 36.7672 49.6511 35.6834 47.6568 35.1659C45.6626 34.6485 43.5577 34.7206 41.6083 35.3732C39.6589 36.0258 37.9527 37.2296 36.7054 38.8323C35.4581 40.4349 34.7258 42.3645 34.6011 44.3769L34.5951 44.4851C34.4652 47.1638 35.4173 49.7877 37.2462 51.7908C39.0751 53.7939 41.6341 55.0156 44.3713 55.1924Z" fill="url(#paint0_linear_55_426)"/>
<path d="M44.5412 19.6052L16.5276 47.6188C14.5233 44.8427 12.8779 41.7985 11.5238 38.5474C10.1108 35.175 8.8275 31.7468 7.54529 28.3214C7.10394 27.1424 6.66271 25.9637 6.21636 24.7877C6.15751 24.6383 6.1163 24.4802 6.06807 24.2952C6.04732 24.2156 6.02528 24.131 5.99998 24.04L14.1203 20.9309C16.5667 26.4312 19.6381 31.3857 25.1018 34.6609C25.1894 34.1032 25.2676 33.5744 25.3441 33.0577C25.4303 32.475 25.5143 31.9078 25.6067 31.3323C26.5666 25.4222 28.9746 19.833 32.6211 15.0508C34.9796 11.8824 37.5216 8.84414 40.0709 5.79729C41.2119 4.43363 42.3543 3.06824 43.4823 1.68867C43.5672 1.58198 43.6398 1.4655 43.7174 1.34081C43.7607 1.27133 43.8055 1.1993 43.855 1.12499L50.7852 6.60751C47.8199 10.6081 45.3788 14.7692 44.5412 19.6052Z" fill="url(#paint1_linear_55_426)" fill-opacity="0.65" stroke="url(#paint2_linear_55_426)" stroke-width="2"/>
<path d="M33.653 71.6428L33.9496 71.6109L34.1802 71.4217L71.9007 40.4798L72.7056 39.8196L72.0135 39.0419C70.4845 37.3236 68.7973 35.7379 66.9691 34.3067L66.9692 34.3066L66.9585 34.2984L65.9114 33.5013C70.8723 31.2956 76.046 31.1516 81.4921 31.7856L82.4422 31.8962L82.5949 30.9519L83.9773 22.4018L84.1185 21.5286L83.2691 21.2819C82.9783 21.1974 82.6816 21.1343 82.3815 21.093C81.0422 20.8729 79.7034 20.6457 78.3617 20.4181L78.3527 20.4166C74.7616 19.8073 71.1503 19.1946 67.523 18.7172L67.521 18.7169C63.7196 18.2247 59.9131 18.0975 56.1378 18.5248L55.8443 18.558L55.616 18.7453L18.0478 49.5623L17.2514 50.2155L17.9279 50.9922C19.7302 53.0615 21.7709 54.952 24.0818 56.633C19.183 58.8772 13.9682 58.9484 8.44744 58.4082L7.50088 58.3156L7.36095 59.2564L6.09271 67.7828L5.95304 68.7217L6.88346 68.91C13.8306 70.316 20.7181 71.6017 27.7688 71.8306C29.737 71.9162 31.7041 71.8527 33.653 71.6428ZM37.3142 52.5756C35.2966 50.5778 34.1574 47.8801 34.1379 45.0647V44.947C34.1528 42.8309 34.8026 40.7656 36.0068 39.0118C37.2118 37.257 38.9184 35.8924 40.912 35.0927C42.9057 34.2929 45.0956 34.0946 47.2042 34.5234C49.3128 34.9521 51.2434 35.9881 52.7526 37.4985C54.2616 39.0087 55.2817 40.9252 55.6856 43.0049C56.0896 45.0845 55.8599 47.2358 55.0248 49.1873C54.1898 51.139 52.7862 52.8045 50.9897 53.9715C49.1932 55.1386 47.0851 55.7544 44.9321 55.7394C42.0682 55.7118 39.3325 54.5741 37.3142 52.5756Z" fill="url(#paint3_linear_55_426)" fill-opacity="0.55" stroke="url(#paint4_linear_55_426)" stroke-width="2"/>
<path d="M73.4508 42.4028C75.1533 44.7161 76.5876 47.2237 77.7189 49.8803C79.2581 53.3481 80.5969 56.9107 81.9302 60.4583C82.5702 62.1612 83.2088 63.8607 83.8678 65.5446C83.9239 65.7276 83.968 65.9139 84 66.1024L75.9277 69.2293C73.4513 63.723 70.3739 58.7508 64.8862 55.4696C64.796 56.1401 64.7299 56.6563 64.6698 57.1962C63.792 64.1119 61.0197 70.6601 56.6516 76.1359C54.4205 79.0306 52.0579 81.8425 49.7031 84.6451C48.6068 85.9498 47.5123 87.2525 46.4335 88.5605C46.3175 88.6767 46.1907 88.782 46.0549 88.875L39.2809 83.5349C42.264 79.4944 44.7604 75.2882 45.5464 70.3072L73.4508 42.4028Z" fill="url(#paint5_linear_55_426)" fill-opacity="0.55" stroke="url(#paint6_radial_55_426)" stroke-width="2"/>
</g>
<defs>
<linearGradient id="paint0_linear_55_426" x1="69.6228" y1="46.3591" x2="19.6931" y2="43.6031" gradientUnits="userSpaceOnUse">
<stop stop-color="#979797"/>
<stop offset="1" stop-color="white"/>
</linearGradient>
<linearGradient id="paint1_linear_55_426" x1="44.5153" y1="24.3719" x2="11.8221" y2="24.3719" gradientUnits="userSpaceOnUse">
<stop stop-color="#3793FF"/>
<stop offset="1" stop-color="#53D772"/>
</linearGradient>
<linearGradient id="paint2_linear_55_426" x1="28.3926" y1="1.12499" x2="28.3926" y2="47.6188" gradientUnits="userSpaceOnUse">
<stop stop-color="#00B2CC"/>
<stop offset="0.01395" stop-color="#15B7CF"/>
<stop offset="0.04973" stop-color="#47C4D7"/>
<stop offset="0.08107" stop-color="#6CCDDD"/>
<stop offset="0.10646" stop-color="#82D2E1"/>
<stop offset="0.12271" stop-color="#8AD4E2"/>
<stop offset="0.13138" stop-color="#83CFDE"/>
<stop offset="0.18329" stop-color="#61B6C8"/>
<stop offset="0.24052" stop-color="#43A0B5"/>
<stop offset="0.30332" stop-color="#2B8EA5"/>
<stop offset="0.374" stop-color="#18809A"/>
<stop offset="0.45706" stop-color="#0B7691"/>
<stop offset="0.5642" stop-color="#03718C"/>
<stop offset="0.78125" stop-color="#016F8B"/>
<stop offset="1" stop-color="#005261"/>
</linearGradient>
<linearGradient id="paint3_linear_55_426" x1="45.036" y1="19.2658" x2="45.036" y2="58.2538" gradientUnits="userSpaceOnUse">
<stop stop-color="#EEA600"/>
<stop offset="1" stop-color="#FF9C88"/>
</linearGradient>
<linearGradient id="paint4_linear_55_426" x1="45.036" y1="19.2658" x2="45.036" y2="58.2538" gradientUnits="userSpaceOnUse">
<stop stop-color="#EEA600"/>
<stop offset="1" stop-color="#E73B19"/>
</linearGradient>
<linearGradient id="paint5_linear_55_426" x1="61.6404" y1="42.4028" x2="61.6404" y2="77.5151" gradientUnits="userSpaceOnUse">
<stop stop-color="#FF96BC"/>
<stop offset="1" stop-color="#B167FF"/>
</linearGradient>
<radialGradient id="paint6_radial_55_426" cx="0" cy="0" r="1" gradientUnits="userSpaceOnUse" gradientTransform="translate(61.6404 65.6389) rotate(90) scale(23.2361 38.7202)">
<stop stop-color="#9C286D"/>
<stop offset="1" stop-color="#803A54"/>
</radialGradient>
<clipPath id="clip0_55_426">
<rect width="90" height="90" fill="white"/>
</clipPath>
</defs>
</svg>
